<svg width="72" height="12" viewBox="0 0 72 12" fill="none" xmlns="http://www.w3.org/2000/svg">
<path d="M6 0L7.97496 3.2817L11.7063 4.1459L9.19555 7.0383L9.52671 10.8541L6 9.36L2.47329 10.8541L2.80445 7.0383L0.293661 4.1459L4.02504 3.2817L6 0Z" fill="#F1E044"/>
<path d="M21 0L22.975 3.2817L26.7063 4.1459L24.1955 7.0383L24.5267 10.8541L21 9.36L17.4733 10.8541L17.8045 7.0383L15.2937 4.1459L19.025 3.2817L21 0Z" fill="#F1E044"/>
<path d="M36 0L37.975 3.2817L41.7063 4.1459L39.1955 7.0383L39.5267 10.8541L36 9.36L32.4733 10.8541L32.8045 7.0383L30.2937 4.1459L34.025 3.2817L36 0Z" fill="#F1E044"/>
<path d="M51 0L52.975 3.2817L56.7063 4.1459L54.1955 7.0383L54.5267 10.8541L51 9.36L47.4733 10.8541L47.8045 7.0383L45.2937 4.1459L49.025 3.2817L51 0Z" fill="#F1E044"/>
<path d="M66 0L67.975 3.2817L71.7063 4.1459L69.1955 7.0383L69.5267 10.8541L66 9.36L62.4733 10.8541L62.8045 7.0383L60.2937 4.1459L64.025 3.2817L66 0Z" fill="#F1E044"/>
</svg>
