<svg width="138" height="109" viewBox="0 0 138 109" fill="none" xmlns="http://www.w3.org/2000/svg">
<path d="M23.126 106H18.8096L7.4375 88.502C7.14974 88.0592 6.91178 87.5999 6.72363 87.124H6.62402C6.71257 87.6331 6.75684 88.7233 6.75684 90.3945V106H2.93848V82.1934H7.53711L18.5273 99.2764C18.9922 99.9847 19.291 100.472 19.4238 100.737H19.4902C19.3796 100.106 19.3242 99.0384 19.3242 97.5332V82.1934H23.126V106ZM43.4297 106H39.5781V103.311H39.5117C38.3939 105.369 36.6562 106.398 34.2988 106.398C30.2812 106.398 28.2725 103.986 28.2725 99.1602V89H32.124V98.7617C32.124 101.816 33.3027 103.344 35.6602 103.344C36.8001 103.344 37.7354 102.923 38.4658 102.082C39.2074 101.241 39.5781 100.14 39.5781 98.7783V89H43.4297V106ZM57.4248 105.817C56.6722 106.194 55.6816 106.382 54.4531 106.382C51.1549 106.382 49.5059 104.799 49.5059 101.634V92.0215H46.667V89H49.5059V85.0654L53.3574 83.9697V89H57.4248V92.0215H53.3574V100.521C53.3574 101.529 53.54 102.248 53.9053 102.68C54.2705 103.111 54.8792 103.327 55.7314 103.327C56.3844 103.327 56.9489 103.139 57.4248 102.763V105.817ZM70.6064 92.6689C70.1416 92.3037 69.472 92.1211 68.5977 92.1211C67.4577 92.1211 66.5059 92.6357 65.7422 93.665C64.9785 94.6943 64.5967 96.0944 64.5967 97.8652V106H60.7451V89H64.5967V92.5029H64.6631C65.0394 91.3076 65.6149 90.3779 66.3896 89.7139C67.1755 89.0387 68.0498 88.7012 69.0127 88.7012C69.71 88.7012 70.2412 88.8063 70.6064 89.0166V92.6689ZM75.2715 85.4307C74.6406 85.4307 74.0983 85.2259 73.6445 84.8164C73.2018 84.4069 72.9805 83.8867 72.9805 83.2559C72.9805 82.625 73.2018 82.0993 73.6445 81.6787C74.0983 81.2581 74.6406 81.0479 75.2715 81.0479C75.9245 81.0479 76.4779 81.2581 76.9316 81.6787C77.3854 82.0993 77.6123 82.625 77.6123 83.2559C77.6123 83.8535 77.3854 84.3682 76.9316 84.7998C76.4779 85.2204 75.9245 85.4307 75.2715 85.4307ZM77.1807 106H73.3291V89H77.1807V106Z" fill="url(#paint0_linear_101_3)"/>
<path d="M81.5635 105.054V100.986C81.9287 101.318 82.3604 101.617 82.8584 101.883C83.3675 102.148 83.9043 102.375 84.4688 102.563C85.0332 102.741 85.5977 102.879 86.1621 102.979C86.7266 103.078 87.2467 103.128 87.7227 103.128C89.3828 103.128 90.6169 102.851 91.4248 102.298C92.2438 101.744 92.6533 100.942 92.6533 99.8906C92.6533 99.3262 92.515 98.8392 92.2383 98.4297C91.9727 98.0091 91.5964 97.6273 91.1094 97.2842C90.6224 96.9411 90.0469 96.6146 89.3828 96.3047C88.7298 95.9837 88.027 95.6517 87.2744 95.3086C86.4665 94.877 85.7139 94.4398 85.0166 93.9971C84.3193 93.5544 83.7106 93.0674 83.1904 92.5361C82.6813 91.9938 82.2773 91.3851 81.9785 90.71C81.6908 90.0348 81.5469 89.2435 81.5469 88.3359C81.5469 87.2181 81.7959 86.2497 82.2939 85.4307C82.8031 84.6006 83.4671 83.9199 84.2861 83.3887C85.1162 82.8464 86.057 82.4479 87.1084 82.1934C88.1598 81.9277 89.2334 81.7949 90.3291 81.7949C92.8193 81.7949 94.6344 82.0771 95.7744 82.6416V86.543C94.4242 85.569 92.6865 85.082 90.5615 85.082C89.9749 85.082 89.3883 85.1374 88.8018 85.248C88.2262 85.3587 87.7061 85.5413 87.2412 85.7959C86.7874 86.0505 86.4167 86.377 86.1289 86.7754C85.8411 87.1738 85.6973 87.6553 85.6973 88.2197C85.6973 88.751 85.8079 89.2103 86.0293 89.5977C86.2507 89.985 86.5716 90.3392 86.9922 90.6602C87.4238 90.9811 87.944 91.2965 88.5527 91.6064C89.1725 91.9053 89.8864 92.2318 90.6943 92.5859C91.5244 93.0176 92.3047 93.4714 93.0352 93.9473C93.7767 94.4232 94.4242 94.9489 94.9775 95.5244C95.542 96.0999 95.9847 96.7419 96.3057 97.4502C96.6377 98.1475 96.8037 98.9443 96.8037 99.8408C96.8037 101.047 96.5602 102.065 96.0732 102.896C95.5863 103.726 94.9277 104.401 94.0977 104.921C93.2786 105.441 92.3324 105.817 91.2588 106.05C90.1852 106.282 89.0508 106.398 87.8555 106.398C87.457 106.398 86.9645 106.365 86.3779 106.299C85.8024 106.243 85.2103 106.155 84.6016 106.033C83.9928 105.923 83.4173 105.784 82.875 105.618C82.3327 105.452 81.8955 105.264 81.5635 105.054ZM102.697 85.4307C102.066 85.4307 101.524 85.2259 101.07 84.8164C100.628 84.4069 100.406 83.8867 100.406 83.2559C100.406 82.625 100.628 82.0993 101.07 81.6787C101.524 81.2581 102.066 81.0479 102.697 81.0479C103.35 81.0479 103.904 81.2581 104.357 81.6787C104.811 82.0993 105.038 82.625 105.038 83.2559C105.038 83.8535 104.811 84.3682 104.357 84.7998C103.904 85.2204 103.35 85.4307 102.697 85.4307ZM104.606 106H100.755V89H104.606V106ZM118.618 105.817C117.866 106.194 116.875 106.382 115.646 106.382C112.348 106.382 110.699 104.799 110.699 101.634V92.0215H107.86V89H110.699V85.0654L114.551 83.9697V89H118.618V92.0215H114.551V100.521C114.551 101.529 114.733 102.248 115.099 102.68C115.464 103.111 116.073 103.327 116.925 103.327C117.578 103.327 118.142 103.139 118.618 102.763V105.817ZM136.133 98.5459H124.545C124.589 100.118 125.071 101.329 125.989 102.182C126.919 103.034 128.192 103.46 129.808 103.46C131.623 103.46 133.288 102.918 134.805 101.833V104.938C133.255 105.911 131.208 106.398 128.662 106.398C126.161 106.398 124.196 105.629 122.769 104.091C121.352 102.541 120.644 100.367 120.644 97.5664C120.644 94.9212 121.424 92.7686 122.984 91.1084C124.556 89.4372 126.504 88.6016 128.828 88.6016C131.152 88.6016 132.951 89.3486 134.224 90.8428C135.496 92.3369 136.133 94.4121 136.133 97.0684V98.5459ZM132.414 95.8232C132.403 94.4398 132.076 93.3662 131.435 92.6025C130.793 91.8278 129.907 91.4404 128.778 91.4404C127.672 91.4404 126.731 91.8444 125.956 92.6523C125.192 93.4603 124.722 94.5173 124.545 95.8232H132.414Z" fill="#545454"/>
<g clip-path="url(#clip0_101_3)" filter="url(#filter0_d_101_3)">
<path d="M93.8517 35.794C93.5558 32.6636 92.6187 29.8411 91.0403 27.3778C89.3633 24.7092 87.4891 23.1183 85.6148 22.1433C82.5568 20.6037 79.4001 20.7577 76.638 20.809C64.1593 21.0656 60.9533 13.4704 59.3256 8.95439C62.8769 15.1126 67.6612 18.3457 72.5935 17.268C68.4997 -3.10548 50.0036 1.41056 50.0036 1.41056C51.5326 16.6009 56.5635 23.6828 68.4504 25.2224C70.9165 25.5303 73.7279 25.6329 76.8353 25.479C80.9784 25.2737 84.2337 25.1198 87.3411 29.995C89.7086 33.69 90.2018 38.9245 88.6235 44.6208C88.5248 44.9287 88.4262 45.288 88.3275 45.5959C85.5161 54.7306 78.167 63.1982 68.7463 68.1247C55.6264 61.3507 48.6718 50.5738 47.5374 42.722C47.1428 39.7969 47.2908 35.6401 50.4475 32.7149C56.0703 27.4804 61.2985 32.2017 66.1815 37.4362C66.5268 37.8468 66.872 38.1547 67.168 38.4626C67.5132 38.8218 67.9571 39.0271 68.401 39.0784V39.1297C68.845 39.0784 69.2889 38.8218 69.6341 38.5139C69.9301 38.206 70.2753 37.8468 70.6206 37.4875C74.4185 33.4334 78.3643 29.7384 82.5568 30.6108C79.696 27.3265 73.8266 27.9936 68.401 33.2281V33.1768C64.2579 28.7634 56.0703 21.3222 47.5374 29.2252C43.9368 32.6123 42.4078 37.6415 43.197 43.3892C44.7753 54.5253 54.6892 66.3286 67.8585 72.7947C68.1544 72.9487 68.4997 73 68.7956 73C69.1409 73 69.4368 72.9487 69.7328 72.7947C81.225 67.1497 89.9059 57.0912 92.9146 45.8525C92.9146 45.7498 92.9639 45.6985 92.9639 45.5959C93.4078 43.9537 93.7038 42.3115 93.8517 40.7719C94.049 39.0271 94.049 37.3849 93.8517 35.794Z" fill="url(#paint1_linear_101_3)"/>
</g>
<defs>
<filter id="filter0_d_101_3" x="41" y="0" width="55" height="76" filterUnits="userSpaceOnUse" color-interpolation-filters="sRGB">
<feFlood flood-opacity="0" result="BackgroundImageFix"/>
<feColorMatrix in="SourceAlpha" type="matrix" values="0 0 0 0 0 0 0 0 0 0 0 0 0 0 0 0 0 0 127 0" result="hardAlpha"/>
<feOffset dy="1"/>
<feGaussianBlur stdDeviation="1"/>
<feColorMatrix type="matrix" values="0 0 0 0 0 0 0 0 0 0 0 0 0 0 0 0 0 0 0.25 0"/>
<feBlend mode="normal" in2="BackgroundImageFix" result="effect1_dropShadow_101_3"/>
<feBlend mode="normal" in="SourceGraphic" in2="effect1_dropShadow_101_3" result="shape"/>
</filter>
<linearGradient id="paint0_linear_101_3" x1="79.0976" y1="75" x2="79.0077" y2="109" gradientUnits="userSpaceOnUse">
<stop stop-color="#98D67D"/>
<stop offset="1" stop-color="#569F36"/>
</linearGradient>
<linearGradient id="paint1_linear_101_3" x1="72.2291" y1="0.984497" x2="71.138" y2="72.984" gradientUnits="userSpaceOnUse">
<stop stop-color="#98D67D"/>
<stop offset="1" stop-color="#569F36"/>
</linearGradient>
<clipPath id="clip0_101_3">
<rect width="51" height="72" fill="white" transform="translate(43 1)"/>
</clipPath>
</defs>
</svg>
