<svg width="190" height="209" viewBox="0 0 190 209" fill="none" xmlns="http://www.w3.org/2000/svg">
<g filter="url(#filter0_i_60_2348)">
<path d="M101.509 156.23C100.567 157.9 100.251 159.38 100.75 160.834C101.034 161.771 118.204 150.762 120.648 152.067C119.158 155.448 113.676 162.508 107.61 168.902C101.626 175.433 95.2085 181.392 94.0149 185.887C94.3135 186.077 80.6238 197.032 81.8458 197.685C85.4976 199.927 104.658 192.246 107.153 189.463C107.929 188.906 113.766 181.357 114.108 180.692C114.596 181.045 111.393 195.779 114.704 192.969C122.549 187.077 130.83 175.116 131.391 167.864C131.974 162.812 130.489 158.629 130.106 153.971C130.041 152.626 131.953 149.178 133.315 147.902C138.944 142.322 142.902 147.239 145.018 160.358C145.831 167.434 151.077 168.169 152.496 166.214C155.305 162.412 154.412 149.483 150.127 139.229C146.169 128.594 139.362 120.77 138.766 119.928C137.94 118.855 137.14 117.673 136.545 116.369C136.369 115.921 136.126 115.513 135.95 115.065C130.527 102.909 140.295 106.103 141.218 106.565C143.364 107.68 151.29 113.359 152.15 112.015C152.723 111.118 152.685 109.665 152.24 108.457C152.105 108.076 151.97 107.696 151.862 107.207C153.845 108.05 156.016 109.979 157.905 110.047C160.257 110.116 161.96 108.636 162.716 105.418C163.032 103.938 162.316 101.968 161.367 100.691C151.444 88.7376 148.089 93.3267 139.074 87.8375C126.706 80.7583 114.073 76.3273 115.048 72.2399C116.597 72.512 118.281 73.1643 119.6 73.2055C121.843 73.2469 123.965 72.6229 124.745 70.6811C126.071 67.4902 123.604 64.4474 120.305 62.6402C120.934 61.0651 121.563 59.49 122.193 57.9148C122.726 56.4891 120.801 54.044 118.955 53.12C111.459 49.3967 106.382 51.8803 102.718 54.7175C95.0769 60.4867 84.2235 56.5587 72.1986 53.608C60.4327 50.318 47.6853 48.1683 41.8243 48.7233C30.1441 49.4395 15.8352 52.0968 15.0052 52.4089C12.7334 52.9378 11.7891 55.5314 14.074 55.179C19.8131 54.4203 25.4161 53.743 31.1003 53.2015C37.3269 53.2578 43.5799 53.6671 49.7636 54.5789C52.278 54.9192 54.7649 55.3681 57.1837 55.8577C61.0014 56.9861 64.6257 59.3366 64.2787 62.3106C63.544 68.1906 67.2255 69.4004 67.2662 69.4683C67.3749 69.4955 67.6231 62.3388 72.2918 60.0995C73.0252 60.3984 73.8267 60.6567 74.5602 60.9557C77.6707 62.1382 80.9163 63.7009 83.2494 65.9016C86.2743 68.7952 85.7648 71.4975 84.4526 74.4033C82.2522 79.2236 80.5941 84.6417 85.547 88.5951C86.1575 89.1521 87.0545 89.261 87.8572 89.0575C87.6375 89.9266 87.4179 90.7957 87.1983 91.6647C86.5538 93.9868 85.447 96.3087 85.1966 98.6716C84.9154 102.528 90.4326 109.279 91.8282 105.586C95.2113 95.1709 97.5061 90.663 100.393 88.8441C103.171 86.998 106.377 88.0311 108.296 87.0675C111.571 93.3155 106.659 100.865 105.313 106.188C104.668 108.971 104.621 111.674 104.546 114.485C104.567 117.147 104.518 120.311 102.311 122.184C101.072 123.203 101 124.628 101.582 125.756C103.422 129.45 115.593 117.191 120.006 113.444C125.992 123.142 116.028 133.99 109.8 140.113C108.478 141.457 107.197 142.869 106.513 144.661C105.583 146.969 106.829 148.898 105.777 151.003C104.793 153.067 102.574 154.302 101.509 156.23Z" fill="#8EBF4A"/>
<g opacity="0.29">
<g opacity="0.29" filter="url(#filter1_d_60_2348)">
<path d="M81.8458 197.685C85.4976 199.927 104.658 192.246 107.153 189.463C107.929 188.906 113.766 181.357 114.108 180.692C114.596 181.045 111.393 195.779 114.704 192.969C122.549 187.077 130.83 175.116 131.391 167.864C131.974 162.812 130.489 158.629 130.106 153.971C130.041 152.626 131.953 149.178 133.315 147.901C138.944 142.322 142.902 147.239 145.018 160.358C145.831 167.434 151.077 168.169 152.496 166.214C155.305 162.412 154.412 149.483 150.127 139.229C146.169 128.594 139.362 120.77 138.766 119.928C137.94 118.855 137.14 117.673 136.545 116.369C136.369 115.921 136.126 115.513 135.95 115.065C130.527 102.909 140.295 106.103 141.218 106.565C143.364 107.68 151.29 113.359 152.15 112.014C152.723 111.118 152.685 109.665 152.24 108.456C152.105 108.076 151.97 107.696 151.862 107.207C153.845 108.05 156.016 109.979 157.905 110.047C160.257 110.116 161.96 108.636 162.716 105.418C163.032 103.938 162.316 101.968 161.367 100.691C151.444 88.7376 148.089 93.3267 139.074 87.8375C126.706 80.7583 114.073 76.3272 115.048 72.2398C116.597 72.5119 118.281 73.1643 119.6 73.2054C121.843 73.2469 123.965 72.6228 124.745 70.6811C126.071 67.4901 123.604 64.4474 120.305 62.6402C120.934 61.065 121.563 59.4899 122.192 57.9148C122.726 56.489 120.801 54.044 118.955 53.1199C111.459 49.3966 106.382 51.8803 102.718 54.7174C95.0769 60.4867 84.2235 56.5586 72.1986 53.608C60.4327 50.3179 47.6853 48.1683 41.8243 48.7233C30.1441 49.4394 15.8352 52.0968 15.0051 52.4089C13.0464 52.8428 12.0625 54.9067 13.3263 55.1651C28.2522 50.2944 43.5361 49.267 57.914 51.8246C68.0921 53.8512 77.8036 57.7246 86.4512 63.0643C96.4865 67.9427 105.674 74.8036 113.268 83.1715C121.006 93.4813 126.279 105.542 128.465 118.159C130.41 134.7 127.134 151.784 118.586 167.317C110.717 177.187 100.908 185.821 89.6744 193.002C87.238 194.183 84.829 195.255 82.3114 196.3C81.7657 197.087 81.4791 197.535 81.8458 197.685Z" fill="#337219"/>
</g>
</g>
<path opacity="0.31" d="M105.308 119.931C107.02 114.757 112.1 110.889 114.274 105.715C116.571 100.284 116.872 93.8332 116.33 87.5182C116.276 87.2737 115.991 87.2601 116.004 87.4366C116.394 94.58 115.588 101.886 112.325 107.711C109.976 111.974 106.04 114.974 105.022 119.917C105.063 119.985 105.24 119.972 105.308 119.931Z" fill="#0D4226"/>
<path opacity="0.31" d="M104.983 153.23C109.566 152.702 112.514 147.895 114.441 143.699C117.721 136.666 122.205 131.955 127.208 126.565C127.276 126.524 127.154 126.321 127.086 126.361C123.502 129.796 119.741 133.244 116.984 137.752C113.64 143.441 112.098 151.372 105.038 153.013C104.929 152.985 104.847 153.311 104.983 153.23Z" fill="#0D4226"/>
<path opacity="0.31" d="M90.7588 103.644C91.5297 99.6784 91.7702 95.7538 92.9627 91.7208C94.0453 88.1224 94.893 86.1399 93.6787 82.2555C92.8959 79.8652 92.751 77.9231 93.0014 75.5602C93.1541 74.2702 93.4154 73.0073 93.1058 71.717C92.4076 68.0773 88.3924 64.3007 85.1084 61.7466C84.8097 61.5564 84.51 61.8279 84.7405 62.0588C86.5302 64.1236 88.5515 65.9576 90.137 68.1445C92.1429 70.7254 92.2197 72.7081 91.9144 75.2883C91.4444 78.5203 92.1054 80.7069 93.1308 83.9665C94.3989 88.0953 92.6783 91.2454 91.7175 95.0476C91.0038 97.8721 90.4251 101.077 90.6358 103.902C90.6907 103.684 90.7588 103.644 90.7588 103.644Z" fill="#0D4226"/>
<g opacity="0.43">
<path opacity="0.43" d="M126.546 124.84C127.076 136.234 125.532 145.088 124.447 149.61C120.85 164.303 112.709 174.336 105.256 181.192C97.6667 188.129 90.846 192.024 85.8622 195.282C103.151 185.863 120.206 171.88 126.134 149.339C127.811 141.327 128.579 133.03 128.245 124.745C127.583 106.33 119.919 87.4921 106.27 75.6458C90.7102 61.531 71.8834 54.6264 55.1262 52.1089C38.2196 49.4963 23.3552 51.3793 13.0716 53.6577C12.0636 54.445 11.8297 55.5993 12.7674 55.7761C19.9493 54.3388 34.2043 51.437 51.112 53.5879C68.0064 55.5623 87.4712 62.9152 103.196 76.3782C119.044 89.5832 126.201 109.739 126.546 124.84Z" fill="#0D4226"/>
</g>
<path d="M127.227 124.433C127.757 135.827 126.213 144.681 125.128 149.203C121.531 163.895 113.39 173.929 105.937 180.785C98.3475 187.722 91.5268 191.617 86.543 194.875C103.832 185.456 120.887 171.473 126.814 148.932C128.492 140.92 129.26 132.622 128.926 124.338C128.263 105.923 120.6 87.0848 106.951 75.2386C91.391 61.1238 72.5642 54.2192 55.807 51.7017C38.9004 49.089 24.036 50.9721 13.7524 53.2504C12.7444 54.0378 12.5105 55.192 13.4482 55.3689C20.6301 53.9316 34.8851 51.0298 51.7928 53.1807C68.6872 55.1551 88.152 62.508 103.877 75.971C119.725 89.1759 126.882 109.331 127.227 124.433Z" fill="#F4F4C9"/>
<path d="M105.648 119.727C107.36 114.554 112.44 110.685 114.614 105.511C116.912 100.08 117.213 93.6295 116.67 87.3145C116.616 87.07 116.331 87.0563 116.344 87.2329C116.735 94.3763 115.929 101.682 112.666 107.507C110.317 111.771 106.381 114.771 105.363 119.714C105.403 119.782 105.58 119.768 105.648 119.727Z" fill="#F4F4C9"/>
<path opacity="0.87" d="M105.392 152.985C109.975 152.457 112.923 147.651 114.85 143.455C118.13 136.421 122.614 131.71 127.616 126.321C127.684 126.28 127.562 126.076 127.494 126.117C123.911 129.552 120.15 133 117.393 137.508C114.048 143.197 112.507 151.127 105.447 152.768C105.27 152.782 105.255 153.067 105.392 152.985Z" fill="#F4F4C9"/>
<path opacity="0.53" d="M140.417 134.432C143.304 138.33 146.204 142.405 147.836 147.607C149.132 151.627 149.352 156.014 151.166 159.355C151.207 159.423 151.302 159.274 151.262 159.206C149.556 155.892 149.718 150.908 148.531 146.915C147.318 142.569 145.069 139.119 142.766 135.886C140.422 132.585 137.914 129.474 135.215 126.662C132.164 123.416 128.107 120.033 127.495 114.682C127.454 114.614 127.454 114.614 127.427 114.723C128.752 123.428 135.945 128.347 140.417 134.432Z" fill="#F4F4C9"/>
<path opacity="0.53" d="M110.453 77.847C113.222 79.6948 115.732 81.882 118.282 84.1372C121.796 87.3839 125.093 90.1146 129.18 92.0035C138.89 96.8004 148.981 95.2825 158.396 103.76C158.586 103.923 158.669 103.597 158.519 103.502C150.408 95.8126 141.339 95.7962 132.769 92.4392C126.955 90.2917 122.694 87.0311 117.633 82.5888C113.441 78.8258 108.762 74.2477 103.668 72.2227C103.084 72.0188 102.77 72.5755 103.299 72.9967C105.47 74.9257 108.023 76.2574 110.453 77.847Z" fill="#F4F4C9"/>
<path d="M91.0992 103.44C91.87 99.4748 92.1106 95.5502 93.3031 91.5172C94.3857 87.9187 95.2334 85.9363 94.0191 82.0519C93.2363 79.6615 93.0914 77.7195 93.3418 75.3566C93.4945 74.0665 93.7558 72.8036 93.4462 71.5134C92.748 67.8737 88.7327 64.0971 85.4488 61.543C85.1501 61.3528 84.8504 61.6243 85.0809 61.8552C86.8706 63.92 88.8919 65.754 90.4773 67.9409C92.4833 70.5218 92.5601 72.5045 92.2548 75.0847C91.7848 78.3167 92.4458 80.5033 93.4712 83.7629C94.7393 87.8917 93.0187 91.0418 92.0579 94.844C91.3442 97.6685 90.7655 100.873 90.9762 103.698C91.0311 103.481 91.0992 103.44 91.0992 103.44Z" fill="#F4F4C9"/>
<path opacity="0.53" d="M96.2286 62.1031C99.3842 61.5065 102.093 60.1629 105.249 59.5664C109.071 58.8478 113.34 58.8763 117.716 59.3937C117.933 59.4481 117.866 59.0271 117.649 58.9727C111.262 57.7213 105.442 58.3442 100.299 59.9451C96.6525 61.1119 93.5507 61.9529 89.1072 61.0145C85.7101 60.2801 82.4096 58.9346 79.1629 57.8336C78.6194 57.6976 78.4822 58.2408 78.9576 58.4175C84.2816 60.6735 90.652 63.1335 96.2286 62.1031Z" fill="#F4F4C9"/>
<path opacity="0.53" d="M123.836 166.205C123.072 173.117 121.478 180.341 117.246 187.483C117.15 187.632 117.368 187.687 117.463 187.538C121.42 181.482 123.094 175.317 124.141 169.342C125.191 162.443 126.267 155.898 126.542 149.094C126.584 148.701 126.081 148.633 125.903 149.108C124.135 154.96 124.407 160.515 123.836 166.205Z" fill="#F4F4C9"/>
<g opacity="0.16">
<path opacity="0.16" d="M85.0818 72.8282C94.9581 70.3325 105.003 71.0553 114.909 73.2448C114.856 73.0003 114.87 72.7152 114.884 72.43C116.433 72.7021 118.118 73.3544 119.436 73.3956C121.679 73.437 123.802 72.813 124.581 70.8712C125.908 67.6803 123.441 64.6375 120.141 62.8303C120.771 61.2552 121.4 59.6801 122.029 58.1049C122.563 56.6792 120.638 54.2341 118.791 53.3101C111.295 49.5868 106.218 52.0704 102.554 54.9076C94.9133 60.6768 84.0599 56.7488 72.0349 53.7981C60.2691 50.5081 47.5217 48.3584 41.6607 48.9134C29.9804 49.6296 15.6716 52.2869 14.8415 52.599C12.5698 53.1279 11.6255 55.7215 13.9104 55.3691C19.6495 54.6104 25.2525 53.9331 30.9367 53.3916C37.1633 53.4479 43.4163 53.8572 49.6 54.769C52.1144 55.1093 54.6013 55.5582 57.0201 56.0478C60.8377 57.1762 64.4621 59.5267 64.1151 62.5007C63.3804 68.3807 67.0619 69.5905 67.1025 69.6584C67.2112 69.6856 67.4595 62.5289 72.1281 60.2896C72.8616 60.5885 73.6631 60.8468 74.3965 61.1458C77.5071 62.3283 80.7527 63.891 83.0858 66.0917C85.677 68.4148 85.767 70.5741 85.0818 72.8282Z" fill="#19501E"/>
</g>
<g opacity="0.35">
<path opacity="0.35" d="M91.7327 105.735C92.1708 104.459 92.5409 103.223 92.9515 102.055C91.0872 102.802 89.1954 103.657 87.3441 104.58C88.957 106.658 90.9938 107.745 91.7327 105.735Z" fill="#8EBF4A"/>
<path opacity="0.35" d="M138.183 119.262C137.546 118.352 136.869 117.374 136.436 116.342C136.261 115.893 136.017 115.486 135.841 115.038C134.3 111.534 133.993 109.32 134.322 108.016C129.051 100.749 119.215 97.5955 108.01 98.4884C107.052 101.367 105.794 104.056 105.218 106.337C104.572 109.121 104.525 111.823 104.45 114.634C104.471 117.296 104.423 120.46 102.216 122.334C100.976 123.352 100.905 124.778 101.487 125.905C103.327 129.599 115.497 117.34 119.911 113.593C125.897 123.292 115.933 134.139 109.705 140.262C108.383 141.606 107.101 143.018 106.417 144.81C105.487 147.119 106.733 149.048 105.682 151.152C104.753 152.999 102.534 154.234 101.469 156.162C100.526 157.832 100.21 159.312 100.71 160.766C101.02 161.594 115.317 152.581 119.642 151.931C131.751 142.659 138.674 130.126 138.183 119.262Z" fill="#8EBF4A"/>
</g>
</g>
<defs>
<filter id="filter0_i_60_2348" x="12.1761" y="48.6361" width="150.615" height="153.453" filterUnits="userSpaceOnUse" color-interpolation-filters="sRGB">
<feFlood flood-opacity="0" result="BackgroundImageFix"/>
<feBlend mode="normal" in="SourceGraphic" in2="BackgroundImageFix" result="shape"/>
<feColorMatrix in="SourceAlpha" type="matrix" values="0 0 0 0 0 0 0 0 0 0 0 0 0 0 0 0 0 0 127 0" result="hardAlpha"/>
<feOffset dy="4"/>
<feGaussianBlur stdDeviation="2"/>
<feComposite in2="hardAlpha" operator="arithmetic" k2="-1" k3="1"/>
<feColorMatrix type="matrix" values="0 0 0 0 0 0 0 0 0 0 0 0 0 0 0 0 0 0 0.25 0"/>
<feBlend mode="normal" in2="shape" result="effect1_innerShadow_60_2348"/>
</filter>
<filter id="filter1_d_60_2348" x="8.76105" y="48.6361" width="158.03" height="157.453" filterUnits="userSpaceOnUse" color-interpolation-filters="sRGB">
<feFlood flood-opacity="0" result="BackgroundImageFix"/>
<feColorMatrix in="SourceAlpha" type="matrix" values="0 0 0 0 0 0 0 0 0 0 0 0 0 0 0 0 0 0 127 0" result="hardAlpha"/>
<feOffset dy="4"/>
<feGaussianBlur stdDeviation="2"/>
<feComposite in2="hardAlpha" operator="out"/>
<feColorMatrix type="matrix" values="0 0 0 0 0 0 0 0 0 0 0 0 0 0 0 0 0 0 0.25 0"/>
<feBlend mode="normal" in2="BackgroundImageFix" result="effect1_dropShadow_60_2348"/>
<feBlend mode="normal" in="SourceGraphic" in2="effect1_dropShadow_60_2348" result="shape"/>
</filter>
</defs>
</svg>
